# xmcd
#
# Track frame offsets: 
#        150
#        12692
#        24234
#        37144
#        50742
#        62019
#        73419
#        85818
#        97412
#        109409
#        123007
#        135199
#        147996
#        160630
#        173083
#        185560
#        198041
#        209576
#        222707
#        234623
#        247626
#
# Disc length: 3442 seconds
#
# Revision: 1
# Processed by: cddbd v1.5.2PL0 Copyright (c) Steve Scherf et al.
# Submitted via: ExactAudioCopy v0.99pb5
#
DISCID=380d7015
DTITLE=Brownie McGhee - Back Home Blues 
DYEAR=1941
DGENRE=Blues
TTITLE0=Key to my door
TTITLE1=Million lonesome woman
TTITLE2=Ain't no tellin'
TTITLE3=Try me one more time
TTITLE4=I want to see Jesus
TTITLE5=Done what my Lord said
TTITLE6=I want King Jesus
TTITLE7=What will I do (without the Lord)
TTITLE8=Key to the highway
TTITLE9=I don't believe in love
TTITLE10=So much trouble
TTITLE11=Good-bye now
TTITLE12=Jealous of my woman
TTITLE13=Unfair blues
TTITLE14=Barbecue any old time
TTITLE15=Workingman's blues
TTITLE16=Sinful disposition woman
TTITLE17=Back home blues
TTITLE18=Deep sea river
TTITLE19=It must be love
TTITLE20=Swing, soldier, swing
EXTD=YEAR: 1941
EXTT0=
EXTT1=
EXTT2=
EXTT3=
EXTT4=
EXTT5=
EXTT6=
EXTT7=
EXTT8=
EXTT9=
EXTT10=
EXTT11=
EXTT12=
EXTT13=
EXTT14=
EXTT15=
EXTT16=
EXTT17=
EXTT18=
EXTT19=
EXTT20=
PLAYORDER=
